<?xml version="1.0" encoding="utf-8"?>
<svg version="1.1" id="Layer_1"
xmlns="http://www.w3.org/2000/svg"
xmlns:xlink="http://www.w3.org/1999/xlink"
width="550px" height="400px"
xml:space="preserve">
<filter id="filter7" x="-0.51" y="-0.51" width="2.2" height="2.2" >
<feComponentTransfer in="SourceGraphic">
	<feFuncR type="linear" slope="0"/>
	<feFuncG type="linear" slope="0"/>
	<feFuncB type="linear" slope="0"/>
</feComponentTransfer>
<feGaussianBlur stdDeviation="0 0" />
<feOffset result="1" dx="9.82983" dy="6.88291"/>
<feComponentTransfer in="SourceGraphic">
	<feFuncR type="linear" slope="0"/>
	<feFuncG type="linear" slope="0"/>
	<feFuncB type="linear" slope="0"/>
</feComponentTransfer>
<feGaussianBlur stdDeviation="0 0" />
<feOffset result="2" dx="-9.82983" dy="-6.88291"/>
<feComposite  in="1" in2="2" operator="arithmetic" k2="1" k3="-1"/>
<feComponentTransfer result="3">
	<feFuncR type="linear" Ue="0" intercept="0.694118"/>
	<feFuncG type="linear" Ue="0" intercept="0.831373"/>
	<feFuncB type="linear" Ue="0" intercept="1"/>
	<feFuncA type="linear" xh="0" slope="1"/>
</feComponentTransfer>
<feComposite  in="2" in2="1" operator="arithmetic" k2="1" k3="-1"/>
<feComponentTransfer result="4">
	<feFuncR type="linear" Ue="0" intercept="0.133333"/>
	<feFuncG type="linear" Ue="0" intercept="0.223529"/>
	<feFuncB type="linear" Ue="0" intercept="0.337255"/>
	<feFuncA type="linear" xh="0" slope="1"/>
</feComponentTransfer>
<feComposite result="5"  in="3" in2="4" operator="arithmetic" k2="1" k3="1"/>
<feComposite result="6"  in="5" in2="SourceGraphic" operator="atop"/>
</filter>
<g style="filter:url(#filter7);">
<g id="PathID_1" transform="matrix(1.49383, 0, 0, 1.49383, 123.4, 104.7)" opacity="1">
<path style="fill:#4A7DBC;fill-opacity:1" d="M142.05 45.9L85.1 78.75L75.1 78.75L18.25 45.9L18.75 28.45L75.65 0L84.55 0L141.5 28.45L142.05 45.9M88.15 83.4L144.55 50.95L160.1 60.6L156.6 119.9L151.95 128L99.2 162.85L82.9 154.1L82.9 92.45L88.15 83.4M15.65 50.95L71.95 83.4L77.25 92.45L77.25 154.1L61.05 162.85L8.2 128L3.55 119.9L0 60.6L15.65 50.95" />
</g>
<g id="PathID_2" transform="matrix(1.49383, 0, 0, 1.49383, 123.4, 104.7)" opacity="1">
</g>
</g>
<filter id="filter14" x="-0.52581" y="-0.52581" width="2.23162" height="2.23162" >
<feComponentTransfer in="SourceGraphic">
	<feFuncR type="linear" slope="0"/>
	<feFuncG type="linear" slope="0"/>
	<feFuncB type="linear" slope="0"/>
</feComponentTransfer>
<feGaussianBlur stdDeviation="0.8 0.8" />
<feOffset result="8" dx="6.55322" dy="4.5886"/>
<feComponentTransfer in="SourceGraphic">
	<feFuncR type="linear" slope="0"/>
	<feFuncG type="linear" slope="0"/>
	<feFuncB type="linear" slope="0"/>
</feComponentTransfer>
<feGaussianBlur stdDeviation="0.8 0.8" />
<feOffset result="9" dx="-6.55322" dy="-4.5886"/>
<feComposite  in="8" in2="9" operator="arithmetic" k2="1" k3="-1"/>
<feComponentTransfer result="10">
	<feFuncR type="linear" Ue="0" intercept="0.694118"/>
	<feFuncG type="linear" Ue="0" intercept="0.831373"/>
	<feFuncB type="linear" Ue="0" intercept="1"/>
	<feFuncA type="linear" xh="0" slope="2"/>
</feComponentTransfer>
<feComposite  in="9" in2="8" operator="arithmetic" k2="1" k3="-1"/>
<feComponentTransfer result="11">
	<feFuncR type="linear" Ue="0" intercept="0.133333"/>
	<feFuncG type="linear" Ue="0" intercept="0.223529"/>
	<feFuncB type="linear" Ue="0" intercept="0.337255"/>
	<feFuncA type="linear" xh="0" slope="2"/>
</feComponentTransfer>
<feComposite result="12"  in="10" in2="11" operator="arithmetic" k2="1" k3="1"/>
<feComposite result="13"  in="12" in2="SourceGraphic" operator="atop"/>
</filter>
<g style="filter:url(#filter14);">
<g id="PathID_3" transform="matrix(0.4625, 0, 0, 0.4625, 361.95, 271.7)" opacity="1">
<path style="fill:#4A7DBC;fill-opacity:1" d="M142.05 45.9L85.1 78.75L75.1 78.75L18.25 45.9L18.75 28.45L75.65 0L84.55 0L141.5 28.45L142.05 45.9M88.15 83.4L144.55 50.95L160.1 60.6L156.6 119.9L151.95 128L99.2 162.85L82.9 154.1L82.9 92.45L88.15 83.4M15.65 50.95L71.95 83.4L77.25 92.45L77.25 154.1L61.05 162.85L8.2 128L3.55 119.9L0 60.6L15.65 50.95" />
</g>
<g id="PathID_4" transform="matrix(0.4625, 0, 0, 0.4625, 361.95, 271.7)" opacity="1">
</g>
</g>
<g id="PathID_5" transform="matrix(1.18608, 0, 0, 1.18608, 62, 84.2)" opacity="1">
<path style="fill:#000000;fill-opacity:1" d="M8 -17.9Q8 -9.75 11.25 -5.4Q14.55 -1.1 20.95 -1.1Q27.2 -1.1 30.2 -5Q33.2 -8.95 33.2 -17.4Q33.2 -25.3 30 -29.55Q26.85 -33.8 20.2 -33.8Q13.8 -33.8 10.9 -29.85Q8 -25.9 8 -17.9M38.7 -18.25Q38.7 -9.55 33.75 -4.3Q28.85 0.95 20.05 0.95Q11.65 0.95 7.05 -3.9Q2.5 -8.75 2.5 -17.05Q2.5 -25.75 7.4 -30.8Q12.35 -35.85 21.1 -35.85Q29.5 -35.85 34.1 -31.1Q38.7 -26.4 38.7 -18.25" />
</g>
<g id="PathID_6" transform="matrix(1.18608, 0, 0, 1.18608, 62, 84.2)" opacity="1">
</g>
<g id="PathID_7" transform="matrix(1.18608, 0, 0, 1.18608, 110.8, 84.2)" opacity="1">
<path style="fill:#000000;fill-opacity:1" d="M9.05 -2.1Q11.05 -1.45 13.1 -1.45Q17.3 -1.45 19.4 -4Q21.55 -6.6 21.55 -11.4Q21.55 -15.8 19.6 -18.25Q17.65 -20.7 13.8 -20.7Q11.35 -20.7 9.05 -19.6L9.05 -2.1M9.2 -37.45Q9.05 -33.7 9.05 -26.15L9.05 -21.1Q13.1 -23.75 16.45 -23.75Q21.2 -23.75 23.95 -20.55Q26.7 -17.4 26.7 -12.35Q26.7 -6.15 23.15 -2.7Q19.6 0.7 13.35 0.7Q9.15 0.7 4.35 -0.7L4.4 -8.9L4.4 -23.7Q4.4 -29.25 4.3 -34.05L0.9 -35.05L0.8 -35.9Q4.9 -36.65 8.9 -37.7L9.2 -37.45" />
</g>
<g id="PathID_8" transform="matrix(1.18608, 0, 0, 1.18608, 110.8, 84.2)" opacity="1">
</g>
<g id="PathID_9" transform="matrix(1.18608, 0, 0, 1.18608, 144.6, 84.2)" opacity="1">
<path style="fill:#000000;fill-opacity:1" d="M1.1 -22Q5.4 -22.8 9.2 -23.75L9.45 -23.55Q9.3 -20.3 9.3 -16.4L9.3 -2.2Q9.3 2.75 7.35 5.55Q5.45 8.4 0.7 12.6L-0.45 11.6Q3.25 6.7 3.95 4.35Q4.65 2.05 4.65 -1.55L4.65 -14.15Q4.65 -17.2 4.55 -20.2L1.25 -21.15L1.1 -22M9.35 -32.6Q9.35 -31.25 8.5 -30.4Q7.7 -29.6 6.4 -29.6Q5.15 -29.6 4.35 -30.35Q3.55 -31.15 3.55 -32.4Q3.55 -33.75 4.4 -34.55Q5.25 -35.35 6.55 -35.35Q7.8 -35.35 8.55 -34.6Q9.35 -33.9 9.35 -32.6" />
</g>
<g id="PathID_10" transform="matrix(1.18608, 0, 0, 1.18608, 144.6, 84.2)" opacity="1">
</g>
<g id="PathID_11" transform="matrix(1.18608, 0, 0, 1.18608, 160.65, 84.2)" opacity="1">
<path style="fill:#000000;fill-opacity:1" d="M22.8 -1.75Q20.65 -0.45 18.4 0.1Q16.15 0.7 14.25 0.7Q8.75 0.7 5.35 -2.4Q1.95 -5.55 1.95 -11.15Q1.95 -16.7 5.1 -20.2Q8.25 -23.75 13.55 -23.75Q18 -23.75 20.45 -21.1Q22.95 -18.45 22.95 -13.8L22.85 -12.4L7.1 -12.4Q7.1 -7 9.6 -4.7Q12.15 -2.4 17.5 -2.4Q19.9 -2.4 22.65 -2.85L22.8 -1.75M17.8 -14.5L17.8 -15.2Q17.8 -18.75 16.65 -20.25Q15.55 -21.8 13.35 -21.8Q10.45 -21.8 8.9 -19.65Q7.35 -17.5 7.2 -14.5L17.8 -14.5" />
</g>
<g id="PathID_12" transform="matrix(1.18608, 0, 0, 1.18608, 160.65, 84.2)" opacity="1">
</g>
<g id="PathID_13" transform="matrix(1.18608, 0, 0, 1.18608, 189.75, 84.2)" opacity="1">
<path style="fill:#000000;fill-opacity:1" d="M22.2 -1.75Q20.65 -0.7 18.35 0Q16.1 0.7 13.85 0.7Q8.45 0.7 5.2 -2.45Q1.95 -5.6 1.95 -10.9Q1.95 -16.6 5.6 -20.15Q9.3 -23.75 14.95 -23.75Q18.65 -23.75 22.1 -22.25Q21.25 -18.9 20.6 -15.4L19.65 -15.25L17.6 -21.25Q16.45 -21.65 15 -21.65Q11.3 -21.65 9.2 -19.05Q7.1 -16.45 7.1 -12.15Q7.1 -7.15 9.45 -4.75Q11.85 -2.35 17 -2.35Q19.35 -2.35 22.05 -2.85L22.2 -1.75" />
</g>
<g id="PathID_14" transform="matrix(1.18608, 0, 0, 1.18608, 189.75, 84.2)" opacity="1">
</g>
<g id="PathID_15" transform="matrix(1.18608, 0, 0, 1.18608, 217.75, 84.2)" opacity="1">
<path style="fill:#000000;fill-opacity:1" d="M9.05 -20.45Q8.9 -12 8.9 -6.8Q8.9 -4.2 9.65 -3.2Q10.45 -2.25 12.6 -2.25Q14.35 -2.25 17.1 -2.7L17.25 -1.55Q12.95 0.6 9.55 0.6Q6.75 0.6 5.4 -0.85Q4.05 -2.3 4.05 -5.25Q4.05 -10.1 4.25 -20.6L0.8 -21.45L0.65 -22.45L4.5 -22.8L6.25 -28.85L8.85 -29.6L9.1 -29.4L9.05 -23.75L9.05 -22.85L16.55 -22.85L16.55 -20.45L9.05 -20.45" />
</g>
<g id="PathID_16" transform="matrix(1.18608, 0, 0, 1.18608, 217.75, 84.2)" opacity="1">
</g>
<g id="PathID_17" transform="matrix(1.18608, 0, 0, 1.18608, 252.75, 84.2)" opacity="1">
<path style="fill:#000000;fill-opacity:1" d="M11.15 -7.65L11.15 -4.95L11.2 -2.8Q11.2 -2 11.85 -1.8L14.6 -1L14.7 0.1L8.75 0.05L2.55 0.1L2.45 -1L5.5 -1.9Q6.15 -2.05 6.2 -2.65L6.2 -4.9L6.25 -7.65L6.25 -27.9L6.2 -30.2L6.2 -32.05Q6.15 -32.7 5.6 -32.9L2.5 -33.9L2.45 -35L8.75 -34.9L10.25 -34.9L12.55 -35L14.8 -35.1L16.3 -35.15Q22.05 -35.15 24.95 -32.95Q27.85 -30.8 27.85 -26.7Q27.85 -22.95 25.85 -20.65Q23.85 -18.35 19.8 -17.1Q21.4 -14.7 22.75 -12.45L25.25 -8.35L27.35 -5.05Q28.35 -3.65 29.15 -2.8L30 -2.05L30.9 -1.55L31.85 -1.2L33 -0.95L33.1 0.2Q31.3 0.4 30.05 0.4L28.25 0.35Q27.45 0.3 26.85 0.15L25.75 -0.2Q25.25 -0.45 24.8 -0.85Q23.75 -1.6 22.7 -3.05Q21.7 -4.55 20.6 -6.4L18.4 -10.3Q17.25 -12.4 15.95 -14.4L15.25 -15.35Q15 -15.7 14.7 -15.9Q14.4 -16.1 13.95 -16.15L12.9 -16.3L11.15 -16.35L11.15 -7.65M11.15 -18.2L13.95 -18.15Q18.3 -18.15 20.3 -19.95Q22.35 -21.8 22.35 -25.75Q22.35 -29.55 20.4 -31.3Q18.45 -33.05 14.35 -33.05L12.85 -33L11.15 -32.85L11.15 -18.2" />
</g>
<g id="PathID_18" transform="matrix(1.18608, 0, 0, 1.18608, 252.75, 84.2)" opacity="1">
</g>
<g id="PathID_19" transform="matrix(1.18608, 0, 0, 1.18608, 290.2, 84.2)" opacity="1">
<path style="fill:#000000;fill-opacity:1" d="M22.8 -1.75Q20.65 -0.45 18.4 0.1Q16.15 0.7 14.25 0.7Q8.75 0.7 5.35 -2.4Q1.95 -5.55 1.95 -11.15Q1.95 -16.7 5.1 -20.2Q8.25 -23.75 13.55 -23.75Q18 -23.75 20.45 -21.1Q22.95 -18.45 22.95 -13.8L22.85 -12.4L7.1 -12.4Q7.1 -7 9.6 -4.7Q12.15 -2.4 17.5 -2.4Q19.9 -2.4 22.65 -2.85L22.8 -1.75M17.8 -14.5L17.8 -15.2Q17.8 -18.75 16.65 -20.25Q15.55 -21.8 13.35 -21.8Q10.45 -21.8 8.9 -19.65Q7.35 -17.5 7.2 -14.5L17.8 -14.5" />
</g>
<g id="PathID_20" transform="matrix(1.18608, 0, 0, 1.18608, 290.2, 84.2)" opacity="1">
</g>
<g id="PathID_21" transform="matrix(1.18608, 0, 0, 1.18608, 319.3, 84.2)" opacity="1">
<path style="fill:#000000;fill-opacity:1" d="M1.4 -35.05L1.3 -35.9Q5.7 -36.75 9.45 -37.7L9.7 -37.5Q9.55 -33.4 9.55 -26.15L9.55 -9.85L9.6 -2.65Q9.65 -1.95 10.3 -1.75L13 -0.95L13.1 0.1L7.25 0.05L1.45 0.1L1.35 -0.95L4.15 -1.75Q4.8 -1.95 4.85 -2.55L4.9 -8.85L4.9 -19.1Q4.9 -28.4 4.8 -34.05L1.4 -35.05" />
</g>
<g id="PathID_22" transform="matrix(1.18608, 0, 0, 1.18608, 319.3, 84.2)" opacity="1">
</g>
<g id="PathID_23" transform="matrix(1.18608, 0, 0, 1.18608, 336.4, 84.2)" opacity="1">
<path style="fill:#000000;fill-opacity:1" d="M15.45 -11.3Q10.15 -11.3 8.25 -10.2Q6.35 -9.15 6.35 -6.6Q6.35 -4.25 7.6 -3.25Q8.85 -2.3 11.05 -2.3Q13.55 -2.3 15.4 -3.15L15.45 -11.3M3.3 -21.6Q8.2 -23.75 11.95 -23.75Q15.75 -23.75 18 -21.75Q20.25 -19.75 20.2 -15.95L20.1 -5.55Q20.05 -4.3 20.15 -3.5Q20.25 -2.75 20.6 -2.3Q20.95 -1.9 21.65 -1.75Q22.4 -1.6 23.65 -1.6L23.75 -0.6Q22.7 -0.15 21.1 0.25Q19.55 0.7 19 0.7Q16.55 0.7 15.65 -1.8Q12.1 0.7 8.95 0.7Q5.45 0.7 3.3 -1Q1.2 -2.7 1.2 -5.85Q1.2 -9.7 4.6 -11.5Q8.05 -13.35 15.45 -13.35L15.45 -15.3Q15.5 -18.1 14.05 -19.45Q12.6 -20.8 9.6 -20.8Q7.3 -20.8 3.9 -19.95L3.3 -21.6" />
</g>
<g id="PathID_24" transform="matrix(1.18608, 0, 0, 1.18608, 336.4, 84.2)" opacity="1">
</g>
<g id="PathID_25" transform="matrix(1.18608, 0, 0, 1.18608, 365.5, 84.2)" opacity="1">
<path style="fill:#000000;fill-opacity:1" d="M9.05 -20.45Q8.9 -12 8.9 -6.8Q8.9 -4.2 9.65 -3.2Q10.45 -2.25 12.6 -2.25Q14.35 -2.25 17.1 -2.7L17.25 -1.55Q12.95 0.6 9.55 0.6Q6.75 0.6 5.4 -0.85Q4.05 -2.3 4.05 -5.25Q4.05 -10.1 4.25 -20.6L0.8 -21.45L0.65 -22.45L4.5 -22.8L6.25 -28.85L8.85 -29.6L9.1 -29.4L9.05 -23.75L9.05 -22.85L16.55 -22.85L16.55 -20.45L9.05 -20.45" />
</g>
<g id="PathID_26" transform="matrix(1.18608, 0, 0, 1.18608, 365.5, 84.2)" opacity="1">
</g>
<g id="PathID_27" transform="matrix(1.18608, 0, 0, 1.18608, 386.9, 84.2)" opacity="1">
<path style="fill:#000000;fill-opacity:1" d="M9.9 -32.6Q9.9 -31.25 9.05 -30.4Q8.25 -29.6 6.95 -29.6Q5.7 -29.6 4.9 -30.35Q4.1 -31.15 4.1 -32.4Q4.1 -33.75 4.9 -34.55Q5.75 -35.35 7.1 -35.35Q8.35 -35.35 9.1 -34.6Q9.9 -33.9 9.9 -32.6M1.45 -22Q5.8 -22.8 9.55 -23.75L9.8 -23.55Q9.65 -20.3 9.65 -16.4L9.65 -6.8L9.7 -2.65Q9.75 -2 10.3 -1.8L13.2 -0.95L13.25 0.1L7.35 0.05L1.5 0.1L1.4 -0.95L4.3 -1.8Q4.9 -2 4.95 -2.55L5 -5.85L5 -14.2Q5 -17.45 4.9 -20.25L1.55 -21.15L1.45 -22" />
</g>
<g id="PathID_28" transform="matrix(1.18608, 0, 0, 1.18608, 386.9, 84.2)" opacity="1">
</g>
<g id="PathID_29" transform="matrix(1.18608, 0, 0, 1.18608, 403.95, 84.2)" opacity="1">
<path style="fill:#000000;fill-opacity:1" d="M7.1 -11.75Q7.1 -7.1 8.8 -4.15Q10.55 -1.25 14 -1.25Q17.2 -1.25 18.9 -3.8Q20.6 -6.4 20.6 -11.45Q20.6 -16.25 18.8 -19Q17.05 -21.75 13.7 -21.75Q10.5 -21.75 8.8 -19.25Q7.1 -16.8 7.1 -11.75M25.75 -12Q25.75 -6.3 22.3 -2.8Q18.85 0.7 13.5 0.7Q8.3 0.7 5.1 -2.6Q1.95 -5.9 1.95 -11.25Q1.95 -16.75 5.25 -20.25Q8.6 -23.75 14.15 -23.75Q19.35 -23.75 22.55 -20.5Q25.75 -17.3 25.75 -12" />
</g>
<g id="PathID_30" transform="matrix(1.18608, 0, 0, 1.18608, 403.95, 84.2)" opacity="1">
</g>
<g id="PathID_31" transform="matrix(1.18608, 0, 0, 1.18608, 436.7, 84.2)" opacity="1">
<path style="fill:#000000;fill-opacity:1" d="M1.45 -22Q5.65 -22.8 9.35 -23.75L9.6 -23.55L9.6 -20.65Q13.95 -23.75 17.75 -23.75Q21.3 -23.75 23.3 -21.75Q25.35 -19.75 25.35 -16.1L25.35 -7.3L25.4 -2.65Q25.4 -2 26.05 -1.8L28.8 -0.95L28.85 0.1L23.1 0.05L17.65 0.1L17.55 -0.95L20.05 -1.65Q20.6 -1.85 20.65 -2.4L20.7 -4L20.7 -14.9Q20.7 -17.95 19.2 -19.3Q17.75 -20.65 14.85 -20.65Q12.35 -20.65 9.65 -19.2L9.65 -8.25L9.7 -2.55Q9.7 -1.85 10.25 -1.7L12.85 -0.95L12.9 0.1L7.35 0.05L1.55 0.1L1.45 -0.95L4.4 -1.8Q4.95 -2 4.95 -2.55L5 -5.65L5 -14.15Q5 -17.45 4.9 -20.25L1.55 -21.15L1.45 -22" />
</g>
<g id="PathID_32" transform="matrix(1.18608, 0, 0, 1.18608, 436.7, 84.2)" opacity="1">
</g>
<g id="PathID_33" transform="matrix(1.18608, 0, 0, 1.18608, 472, 84.2)" opacity="1">
<path style="fill:#000000;fill-opacity:1" d="M14.25 -21.2Q12.8 -21.6 11.1 -21.6Q8.75 -21.6 7.3 -20.65Q5.9 -19.75 5.9 -18.2Q5.9 -16.65 6.8 -15.75Q7.75 -14.9 10.3 -14.05L12.35 -13.4Q15.8 -12.2 17.4 -10.7Q19.05 -9.2 19.05 -6.75Q19.05 -3.25 16.35 -1.25Q13.65 0.7 9.5 0.7Q5.7 0.7 1.75 -0.85Q2.6 -4.1 3.1 -7.2L4.1 -7.35L5.9 -2Q7.3 -1.45 9.5 -1.45Q11.85 -1.45 13.25 -2.35Q14.65 -3.3 14.65 -5.05Q14.65 -6.65 13.7 -7.55Q12.75 -8.5 10.7 -9.15L8.1 -10.05Q4.7 -11.15 3.4 -12.75Q2.15 -14.35 2.15 -16.7Q2.15 -19.95 4.6 -21.85Q7.1 -23.75 11.2 -23.75Q15 -23.75 18.1 -22.65Q17.4 -19.8 16.85 -16.6L15.85 -16.45L14.25 -21.2" />
</g>
<g id="PathID_34" transform="matrix(1.18608, 0, 0, 1.18608, 472, 84.2)" opacity="1">
</g>
</svg>
